<?xml version="1.0" encoding="UTF-8"?>
<svg id="Layer_1" xmlns="http://www.w3.org/2000/svg" version="1.1" viewBox="0 0 192.97 46.22">
  <!-- Generator: Adobe Illustrator 29.0.0, SVG Export Plug-In . SVG Version: 2.1.0 Build 186)  -->
  <defs>
    <style>
      .st0 {
        fill: #183864;
      }

      .st1 {
        fill: #fff;
      }
    </style>
  </defs>
  <g>
    <path class="st0" d="M55.27,22.39c-1.45,0-2.67-.72-2.67-2.36,0-1.74,1.33-2.44,3.08-2.61.83-.08,1.75-.23,2.14-.42v-.31c0-1.26-.77-1.73-1.81-1.73-.98,0-1.61.56-1.89,1.62l-1.28-.3c.39-1.87,1.8-2.44,3.3-2.44,2.1,0,3.03,1.09,3.03,3.13v3.55c0,.82.15,1.35.42,1.65h-1.37c-.23-.22-.27-.61-.32-1-.78.9-1.7,1.23-2.64,1.23ZM57.82,18.06c-.35.17-1.22.34-1.99.47-.83.14-1.81.33-1.81,1.43,0,1.03.74,1.31,1.46,1.31,1.01,0,1.93-.75,2.34-1.29v-1.91Z"/>
    <path class="st0" d="M62.48,25.26v-11.2h1.21v1.1c.45-.78,1.18-1.34,2.22-1.34,2.17,0,3.37,1.76,3.37,4.28s-1.19,4.28-3.37,4.28c-.94,0-1.61-.44-2.07-1.09v3.97h-1.36ZM65.83,21.22c1.19,0,2.08-1.06,2.08-3.11s-.89-3.11-2.08-3.11c-1.04,0-2.16,1.06-2.16,3.11s.97,3.11,2.16,3.11Z"/>
    <path class="st0" d="M75.26,22.15c-.3.09-.71.16-1,.16-1.65,0-1.84-.93-1.84-2.52v-4.65h-1.12v-1.07h1.12v-2.13l1.36-.67v2.8h1.34v1.07h-1.34v4.73c0,.7,0,1.2.71,1.2.15,0,.38-.02.62-.09l.15,1.18Z"/>
    <path class="st0" d="M77.95,22.15v-8.09h1.86v1.15c.54-1,1.22-1.38,2.26-1.38,1.15,0,1.92.54,2.23,1.49.5-1.07,1.33-1.49,2.31-1.49,1.51,0,2.46.98,2.46,2.78v5.54h-1.99v-4.98c0-.9-.23-1.62-1.07-1.62-.95,0-1.49.81-1.49,2.02v4.57h-1.99v-5.02c0-1.1-.42-1.57-1.07-1.57-1.09,0-1.51,1.04-1.51,2.41v4.18h-1.99Z"/>
    <path class="st0" d="M94.27,22.39c-1.43,0-2.64-.76-2.64-2.3,0-1.74,1.22-2.41,3.08-2.63.83-.09,1.43-.2,1.83-.39v-.22c0-.76-.42-1.35-1.4-1.35-.91,0-1.34.59-1.52,1.32l-1.74-.54c.39-1.87,1.9-2.44,3.38-2.44,2.02,0,3.28.98,3.28,3.34v3.33c0,.82.18,1.35.45,1.65h-2.01c-.23-.2-.3-.59-.35-.89-.68.84-1.42,1.12-2.35,1.12ZM96.54,18.37c-.29.12-.8.26-1.57.42-.72.14-1.34.37-1.31,1.15,0,.56.38.89,1.04.89.8,0,1.54-.58,1.84-1.12v-1.34Z"/>
    <path class="st0" d="M101.58,22.15v-8.09h1.86v1.17c.57-1,1.3-1.4,2.28-1.4,2.17,0,2.81,1.43,2.81,3.36v4.96h-1.99v-4.9c0-1.07-.36-1.7-1.33-1.7s-1.63.75-1.63,2.19v4.4h-1.99Z"/>
    <path class="st0" d="M113.72,22.39c-1.43,0-2.64-.76-2.64-2.3,0-1.74,1.22-2.41,3.08-2.63.83-.09,1.43-.2,1.83-.39v-.22c0-.76-.42-1.35-1.4-1.35-.91,0-1.34.59-1.52,1.32l-1.74-.54c.39-1.87,1.9-2.44,3.38-2.44,2.02,0,3.28.98,3.28,3.34v3.33c0,.82.18,1.35.45,1.65h-2.01c-.23-.2-.3-.59-.35-.89-.68.84-1.42,1.12-2.35,1.12ZM115.98,18.37c-.29.12-.8.26-1.57.42-.72.14-1.34.37-1.31,1.15,0,.56.38.89,1.04.89.8,0,1.54-.58,1.84-1.12v-1.34Z"/>
    <path class="st0" d="M124.15,25.42c-1.58,0-3.38-.82-3.38-2.75l1.92.2c.09.62.65.93,1.48.93,1.22,0,1.75-.75,1.74-1.93v-.47c-.45.62-1.18.87-1.9.87-1.96,0-3.43-1.48-3.43-4.21s1.42-4.23,3.38-4.23c.94,0,1.65.45,2.1,1.23v-1h1.84v7.68c0,2.01-.98,3.67-3.74,3.67ZM124.3,15.54c-.98,0-1.74.79-1.74,2.52s.71,2.5,1.75,2.5,1.75-.78,1.75-2.5-.83-2.52-1.77-2.52Z"/>
    <path class="st0" d="M132.4,18.69c.08,1.37.89,1.99,1.93,1.99.78,0,1.39-.47,1.6-1.2l1.86.4c-.54,1.66-1.75,2.5-3.58,2.5-2.07,0-3.8-1.38-3.8-4.28s1.75-4.28,3.8-4.28,3.71,1.4,3.71,4c0,.36-.02.81-.02.86h-5.51ZM132.43,17.24h3.46c-.06-1.01-.72-1.7-1.72-1.7-.8,0-1.6.58-1.74,1.7Z"/>
    <path class="st0" d="M140.43,22.15v-8.09h1.86v1.15c.54-1,1.22-1.38,2.26-1.38,1.15,0,1.92.54,2.23,1.49.5-1.07,1.33-1.49,2.31-1.49,1.51,0,2.46.98,2.46,2.78v5.54h-1.99v-4.98c0-.9-.23-1.62-1.07-1.62-.95,0-1.49.81-1.49,2.02v4.57h-1.99v-5.02c0-1.1-.42-1.57-1.07-1.57-1.09,0-1.51,1.04-1.51,2.41v4.18h-1.99Z"/>
    <path class="st0" d="M156.06,18.69c.08,1.37.89,1.99,1.93,1.99.78,0,1.39-.47,1.6-1.2l1.86.4c-.54,1.66-1.75,2.5-3.58,2.5-2.07,0-3.8-1.38-3.8-4.28s1.75-4.28,3.8-4.28,3.71,1.4,3.71,4c0,.36-.01.81-.01.86h-5.51ZM156.09,17.24h3.46c-.06-1.01-.72-1.7-1.72-1.7-.8,0-1.6.58-1.74,1.7Z"/>
    <path class="st0" d="M164.09,22.15v-8.09h1.86v1.17c.57-1,1.3-1.4,2.28-1.4,2.17,0,2.81,1.43,2.81,3.36v4.96h-1.99v-4.9c0-1.07-.36-1.7-1.33-1.7s-1.63.75-1.63,2.19v4.4h-1.99Z"/>
    <path class="st0" d="M177.99,22.08c-.3.16-1.01.23-1.3.23-1.65,0-2.16-.93-2.16-2.52v-4.11h-1.12v-1.62h1.12v-1.8l1.99-.67v2.47h1.45v1.62h-1.45v3.64c0,.7,0,1.2.71,1.2.15,0,.38-.02.62-.09l.14,1.65Z"/>
  </g>
  <g>
    <path class="st0" d="M52.6,28.8v-.66h.57v.66h-.57ZM52.6,32.83v-3.38h.57v3.38h-.57Z"/>
    <path class="st0" d="M54.29,32.83v-3.38h.51v.49c.24-.42.59-.58,1.04-.58.91,0,1.13.6,1.13,1.4v2.07h-.57v-2.05c0-.59-.18-.94-.67-.94-.52,0-.87.4-.87,1.14v1.84h-.57Z"/>
    <path class="st0" d="M58.99,32.83l-1.24-3.38h.58l.91,2.7.93-2.7h.57l-1.24,3.38h-.52Z"/>
    <path class="st0" d="M61.9,31.29c.05.81.49,1.15.96,1.15.38,0,.76-.25.88-.75l.54.12c-.19.75-.73,1.12-1.44,1.12-.91,0-1.5-.67-1.5-1.79s.59-1.79,1.5-1.79c.99,0,1.49.74,1.49,1.72,0,.02,0,.17,0,.21h-2.41ZM61.92,30.82h1.8c-.02-.57-.35-.98-.88-.98-.39,0-.81.29-.91.98Z"/>
    <path class="st0" d="M65.62,31.77c.05.36.27.67.81.67.32,0,.74-.11.74-.49,0-.26-.11-.4-.45-.49l-.8-.22c-.43-.12-.82-.33-.82-.89,0-.71.59-1,1.27-1,.78,0,1.19.4,1.24.98l-.54.08c-.05-.37-.29-.57-.71-.57-.47,0-.71.18-.71.45,0,.23.21.34.4.39l.88.25c.41.12.81.34.81.98,0,.75-.67,1.03-1.32,1.03-.8,0-1.29-.39-1.34-1.07l.55-.08Z"/>
    <path class="st0" d="M70.04,32.83c-.13.04-.3.06-.42.06-.69,0-.77-.39-.77-1.05v-1.94h-.47v-.45h.47v-.89l.57-.28v1.17h.56v.45h-.56v1.98c0,.29,0,.5.3.5.06,0,.16,0,.26-.04l.06.49Z"/>
    <path class="st0" d="M71,32.83v-3.38h.51v.48c.23-.42.55-.58.99-.58.48,0,.8.23.93.62.21-.45.6-.62,1.01-.62.67,0,1.03.41,1.03,1.16v2.31h-.57v-2.13c0-.45-.09-.86-.58-.86-.57,0-.8.47-.8,1.03v1.96h-.57v-2.19c0-.51-.2-.79-.58-.79-.67,0-.81.62-.81,1.23v1.75h-.57Z"/>
    <path class="st0" d="M76.98,31.29c.05.81.49,1.15.96,1.15.38,0,.76-.25.88-.75l.54.12c-.19.75-.73,1.12-1.44,1.12-.91,0-1.5-.67-1.5-1.79s.59-1.79,1.5-1.79c.99,0,1.49.74,1.49,1.72,0,.02,0,.17,0,.21h-2.41ZM77,30.82h1.8c-.02-.57-.35-.98-.88-.98-.39,0-.81.29-.91.98Z"/>
    <path class="st0" d="M80.34,32.83v-3.38h.51v.49c.24-.42.59-.58,1.04-.58.91,0,1.13.6,1.13,1.4v2.07h-.57v-2.05c0-.59-.18-.94-.67-.94-.52,0-.87.4-.87,1.14v1.84h-.57Z"/>
    <path class="st0" d="M85.51,32.83c-.13.04-.3.06-.42.06-.69,0-.77-.39-.77-1.05v-1.94h-.47v-.45h.47v-.89l.57-.28v1.17h.56v.45h-.56v1.98c0,.29,0,.5.3.5.06,0,.16,0,.26-.04l.06.49Z"/>
    <path class="st0" d="M89.34,29.75c.43,0,.78.36.78.8s-.35.81-.78.81-.78-.36-.78-.81.35-.8.78-.8Z"/>
    <path class="st0" d="M95.98,28.15v4.68h-.5v-.46c-.19.32-.49.56-.93.56-.91,0-1.41-.73-1.41-1.79s.5-1.79,1.41-1.79c.39,0,.67.18.86.46v-1.66h.57ZM94.59,29.84c-.5,0-.87.44-.87,1.3s.37,1.3.87,1.3c.44,0,.9-.44.9-1.3s-.4-1.3-.9-1.3Z"/>
    <path class="st0" d="M97.49,31.29c.05.81.49,1.15.96,1.15.38,0,.76-.25.88-.75l.54.12c-.19.75-.73,1.12-1.44,1.12-.91,0-1.5-.67-1.5-1.79s.59-1.79,1.5-1.79c.99,0,1.49.74,1.49,1.72,0,.02,0,.17,0,.21h-2.41ZM97.51,30.82h1.8c-.02-.57-.35-.98-.88-.98-.39,0-.81.29-.91.98Z"/>
    <path class="st0" d="M101.74,32.83l-1.24-3.38h.58l.91,2.7.93-2.7h.57l-1.24,3.38h-.52Z"/>
    <path class="st0" d="M104.65,31.29c.05.81.49,1.15.96,1.15.38,0,.76-.25.88-.75l.54.12c-.19.75-.73,1.12-1.44,1.12-.91,0-1.5-.67-1.5-1.79s.59-1.79,1.5-1.79c.99,0,1.49.74,1.49,1.72,0,.02,0,.17,0,.21h-2.41ZM104.67,30.82h1.8c-.02-.57-.35-.98-.88-.98-.39,0-.81.29-.91.98Z"/>
    <path class="st0" d="M108.01,32.83v-4.52l.57-.26v4.78h-.57Z"/>
    <path class="st0" d="M111.04,29.35c.91,0,1.53.67,1.53,1.79s-.62,1.79-1.53,1.79-1.53-.67-1.53-1.79.62-1.79,1.53-1.79ZM111.04,32.44c.5,0,.96-.38.96-1.3s-.47-1.3-.96-1.3-.96.38-.96,1.3.47,1.3.96,1.3Z"/>
    <path class="st0" d="M113.51,34.13v-4.68h.5v.46c.19-.33.49-.56.93-.56.91,0,1.41.73,1.41,1.79s-.5,1.79-1.41,1.79c-.39,0-.67-.18-.86-.46v1.66h-.57ZM114.91,32.44c.5,0,.87-.44.87-1.3s-.37-1.3-.87-1.3c-.43,0-.9.44-.9,1.3s.4,1.3.9,1.3Z"/>
    <path class="st0" d="M117.28,32.83v-3.38h.51v.48c.23-.42.55-.58.99-.58.48,0,.8.23.93.62.21-.45.6-.62,1.01-.62.67,0,1.03.41,1.03,1.16v2.31h-.57v-2.13c0-.45-.09-.86-.58-.86-.57,0-.8.47-.8,1.03v1.96h-.57v-2.19c0-.51-.2-.79-.58-.79-.67,0-.81.62-.81,1.23v1.75h-.57Z"/>
    <path class="st0" d="M123.25,31.29c.05.81.49,1.15.96,1.15.38,0,.76-.25.88-.75l.54.12c-.19.75-.73,1.12-1.44,1.12-.91,0-1.5-.67-1.5-1.79s.59-1.79,1.5-1.79c.99,0,1.49.74,1.49,1.72,0,.02,0,.17,0,.21h-2.41ZM123.27,30.82h1.8c-.02-.57-.35-.98-.88-.98-.39,0-.81.29-.91.98Z"/>
    <path class="st0" d="M126.61,32.83v-3.38h.51v.49c.24-.42.59-.58,1.04-.58.91,0,1.13.6,1.13,1.4v2.07h-.57v-2.05c0-.59-.18-.94-.67-.94-.52,0-.87.4-.87,1.14v1.84h-.57Z"/>
    <path class="st0" d="M131.78,32.83c-.13.04-.3.06-.42.06-.69,0-.77-.39-.77-1.05v-1.94h-.47v-.45h.47v-.89l.57-.28v1.17h.56v.45h-.56v1.98c0,.29,0,.5.3.5.06,0,.16,0,.26-.04l.06.49Z"/>
    <path class="st0" d="M135.62,29.75c.43,0,.78.36.78.8s-.35.81-.78.81-.78-.36-.78-.81.35-.8.78-.8Z"/>
    <path class="st0" d="M139.61,32.83v-3.38h.51v.48c.23-.42.55-.58.99-.58.48,0,.8.23.93.62.21-.45.6-.62,1.01-.62.67,0,1.03.41,1.03,1.16v2.31h-.57v-2.13c0-.45-.09-.86-.58-.86-.57,0-.8.47-.8,1.03v1.96h-.57v-2.19c0-.51-.2-.79-.58-.79-.67,0-.81.62-.81,1.23v1.75h-.57Z"/>
    <path class="st0" d="M146.13,32.93c-.6,0-1.12-.3-1.12-.99,0-.73.55-1.02,1.29-1.09.35-.03.73-.1.89-.18v-.13c0-.53-.32-.72-.76-.72-.41,0-.67.23-.79.68l-.54-.12c.16-.78.75-1.02,1.38-1.02.88,0,1.27.46,1.27,1.31v1.48c0,.34.06.57.18.69h-.57c-.09-.09-.11-.25-.13-.42-.33.38-.71.51-1.1.51ZM147.2,31.12c-.15.07-.51.14-.83.19-.35.06-.76.14-.76.6,0,.43.31.55.61.55.42,0,.81-.31.98-.54v-.8Z"/>
    <path class="st0" d="M148.94,32.83v-3.38h.51v.49c.24-.42.59-.58,1.04-.58.91,0,1.13.6,1.13,1.4v2.07h-.57v-2.05c0-.59-.18-.94-.67-.94-.52,0-.87.4-.87,1.14v1.84h-.57Z"/>
    <path class="st0" d="M153.67,32.93c-.6,0-1.12-.3-1.12-.99,0-.73.55-1.02,1.29-1.09.35-.03.73-.1.89-.18v-.13c0-.53-.32-.72-.76-.72-.41,0-.67.23-.79.68l-.54-.12c.16-.78.75-1.02,1.38-1.02.88,0,1.27.46,1.27,1.31v1.48c0,.34.06.57.18.69h-.57c-.09-.09-.11-.25-.13-.42-.33.38-.71.51-1.1.51ZM154.74,31.12c-.15.07-.51.14-.83.19-.35.06-.76.14-.76.6,0,.43.31.55.61.55.42,0,.81-.31.98-.54v-.8Z"/>
    <path class="st0" d="M157.69,34.19c-.62,0-1.27-.34-1.27-1.15l.54.08c.02.36.36.57.75.57.6,0,.88-.36.86-.99v-.24c-.19.27-.47.46-.86.46-.91,0-1.41-.73-1.41-1.79s.5-1.79,1.41-1.79c.43,0,.74.23.93.56v-.46h.5v3.12c0,.84-.28,1.62-1.44,1.62ZM157.73,29.84c-.5,0-.87.44-.87,1.3s.37,1.3.87,1.3.9-.44.9-1.3-.47-1.3-.9-1.3Z"/>
    <path class="st0" d="M160.63,31.29c.05.81.49,1.15.96,1.15.38,0,.76-.25.88-.75l.54.12c-.19.75-.73,1.12-1.44,1.12-.91,0-1.5-.67-1.5-1.79s.59-1.79,1.5-1.79c.99,0,1.49.74,1.49,1.72,0,.02,0,.17,0,.21h-2.41ZM160.65,30.82h1.8c-.02-.57-.35-.98-.88-.98-.39,0-.81.29-.91.98Z"/>
    <path class="st0" d="M163.99,32.83v-3.38h.51v.48c.23-.42.55-.58.99-.58.48,0,.8.23.93.62.21-.45.6-.62,1.01-.62.67,0,1.03.41,1.03,1.16v2.31h-.57v-2.13c0-.45-.09-.86-.58-.86-.57,0-.8.47-.8,1.03v1.96h-.57v-2.19c0-.51-.2-.79-.58-.79-.67,0-.81.62-.81,1.23v1.75h-.57Z"/>
    <path class="st0" d="M169.96,31.29c.05.81.49,1.15.96,1.15.38,0,.76-.25.88-.75l.54.12c-.19.75-.73,1.12-1.44,1.12-.91,0-1.5-.67-1.5-1.79s.59-1.79,1.5-1.79c.99,0,1.49.74,1.49,1.72,0,.02,0,.17,0,.21h-2.41ZM169.98,30.82h1.8c-.02-.57-.35-.98-.88-.98-.39,0-.81.29-.91.98Z"/>
    <path class="st0" d="M173.32,32.83v-3.38h.51v.49c.24-.42.59-.58,1.04-.58.91,0,1.13.6,1.13,1.4v2.07h-.57v-2.05c0-.59-.18-.94-.67-.94-.52,0-.87.4-.87,1.14v1.84h-.57Z"/>
    <path class="st0" d="M178.49,32.83c-.13.04-.3.06-.42.06-.69,0-.77-.39-.77-1.05v-1.94h-.47v-.45h.47v-.89l.57-.28v1.17h.56v.45h-.56v1.98c0,.29,0,.5.3.5.06,0,.16,0,.26-.04l.06.49Z"/>
  </g>
  <path class="st1" d="M40.47,17.03c-1.28-2.79-3.53-5.01-6.35-6.24l.67,1.16c2.01,1.11,3.66,2.79,4.73,4.84l.95.24Z"/>
  <polygon class="st1" points="37.15 31.45 36.4 32.07 36.4 12.72 37.15 12.72 37.15 31.45"/>
</svg>