<?xml version="1.0" encoding="UTF-8"?>
<svg id="Layer_1" xmlns="http://www.w3.org/2000/svg" version="1.1" viewBox="0 0 245.1 30.91">
  <!-- Generator: Adobe Illustrator 29.0.0, SVG Export Plug-In . SVG Version: 2.1.0 Build 186)  -->
  <defs>
    <style>
      .st0 {
        fill: #183864;
      }
    </style>
  </defs>
  <path class="st0" d="M5.72,22.88c-2.81,0-5.18-1.39-5.18-4.58,0-3.38,2.58-4.74,5.97-5.07,1.61-.15,3.4-.45,4.16-.81v-.6c0-2.44-1.49-3.35-3.51-3.35-1.9,0-3.13,1.09-3.66,3.14l-2.49-.57c.76-3.62,3.48-4.74,6.41-4.74,4.07,0,5.88,2.11,5.88,6.06v6.88c0,1.6.29,2.62.82,3.2h-2.66c-.44-.42-.53-1.18-.61-1.93-1.52,1.75-3.31,2.38-5.12,2.38ZM10.66,14.5c-.67.33-2.37.66-3.86.91-1.61.27-3.51.63-3.51,2.77,0,1.99,1.43,2.53,2.84,2.53,1.96,0,3.75-1.45,4.54-2.5v-3.71Z"/>
  <path class="st0" d="M19.69,28.46V6.75h2.34v2.14c.88-1.51,2.28-2.59,4.3-2.59,4.21,0,6.53,3.41,6.53,8.29s-2.31,8.29-6.53,8.29c-1.81,0-3.13-.84-4.01-2.11v7.69h-2.63ZM26.18,20.62c2.31,0,4.04-2.05,4.04-6.03s-1.73-6.03-4.04-6.03c-2.02,0-4.19,2.05-4.19,6.03s1.87,6.03,4.19,6.03Z"/>
  <path class="st0" d="M44.49,22.43c-.59.18-1.38.3-1.93.3-3.19,0-3.57-1.81-3.57-4.89v-9.02h-2.17v-2.08h2.17V2.62l2.63-1.3v5.43h2.61v2.08h-2.61v9.17c0,1.36,0,2.32,1.38,2.32.29,0,.73-.03,1.2-.18l.29,2.29Z"/>
  <path class="st0" d="M49.7,22.43V6.75h3.6v2.23c1.05-1.93,2.37-2.68,4.39-2.68,2.22,0,3.72,1.06,4.33,2.9.97-2.08,2.58-2.9,4.48-2.9,2.93,0,4.77,1.9,4.77,5.4v10.74h-3.86v-9.65c0-1.75-.44-3.14-2.08-3.14-1.84,0-2.9,1.57-2.9,3.92v8.87h-3.86v-9.74c0-2.14-.82-3.05-2.08-3.05-2.11,0-2.93,2.02-2.93,4.68v8.11h-3.86Z"/>
  <path class="st0" d="M81.35,22.88c-2.78,0-5.12-1.48-5.12-4.46,0-3.38,2.37-4.68,5.97-5.1,1.61-.18,2.78-.39,3.54-.75v-.42c0-1.48-.82-2.62-2.72-2.62-1.76,0-2.6,1.15-2.96,2.56l-3.37-1.06c.76-3.62,3.69-4.74,6.56-4.74,3.92,0,6.35,1.9,6.35,6.48v6.45c0,1.6.35,2.62.88,3.2h-3.89c-.44-.39-.59-1.15-.67-1.72-1.32,1.63-2.75,2.17-4.56,2.17ZM85.74,15.1c-.56.24-1.55.51-3.04.81-1.4.27-2.61.72-2.55,2.23,0,1.09.73,1.72,2.02,1.72,1.55,0,2.99-1.12,3.57-2.17v-2.59Z"/>
  <path class="st0" d="M95.52,22.43V6.75h3.6v2.26c1.11-1.93,2.52-2.71,4.42-2.71,4.21,0,5.44,2.77,5.44,6.52v9.62h-3.86v-9.5c0-2.08-.7-3.29-2.58-3.29s-3.16,1.45-3.16,4.25v8.54h-3.86Z"/>
  <path class="st0" d="M119.06,22.88c-2.78,0-5.12-1.48-5.12-4.46,0-3.38,2.37-4.68,5.97-5.1,1.61-.18,2.78-.39,3.54-.75v-.42c0-1.48-.82-2.62-2.72-2.62-1.76,0-2.6,1.15-2.96,2.56l-3.37-1.06c.76-3.62,3.69-4.74,6.56-4.74,3.92,0,6.35,1.9,6.35,6.48v6.45c0,1.6.35,2.62.88,3.2h-3.89c-.44-.39-.59-1.15-.67-1.72-1.32,1.63-2.75,2.17-4.56,2.17ZM123.45,15.1c-.56.24-1.55.51-3.04.81-1.4.27-2.61.72-2.55,2.23,0,1.09.73,1.72,2.02,1.72,1.55,0,2.99-1.12,3.57-2.17v-2.59Z"/>
  <path class="st0" d="M139.3,28.77c-3.07,0-6.56-1.6-6.56-5.34l3.72.39c.18,1.21,1.26,1.81,2.87,1.81,2.37,0,3.4-1.45,3.37-3.74v-.91c-.88,1.21-2.28,1.69-3.69,1.69-3.8,0-6.64-2.87-6.64-8.17s2.75-8.2,6.56-8.2c1.81,0,3.19.87,4.07,2.38v-1.93h3.57v14.9c0,3.89-1.9,7.12-7.26,7.12ZM139.59,9.61c-1.9,0-3.37,1.54-3.37,4.89s1.38,4.86,3.4,4.86,3.4-1.51,3.4-4.86-1.61-4.89-3.42-4.89Z"/>
  <path class="st0" d="M155.28,15.71c.15,2.65,1.73,3.86,3.75,3.86,1.52,0,2.69-.91,3.1-2.32l3.6.78c-1.05,3.23-3.4,4.86-6.94,4.86-4.01,0-7.38-2.68-7.38-8.29s3.4-8.29,7.38-8.29,7.2,2.71,7.2,7.75c0,.69-.03,1.57-.03,1.66h-10.68ZM155.34,12.9h6.7c-.12-1.96-1.4-3.29-3.34-3.29-1.55,0-3.1,1.12-3.37,3.29Z"/>
  <path class="st0" d="M170.86,22.43V6.75h3.6v2.23c1.05-1.93,2.37-2.68,4.39-2.68,2.22,0,3.72,1.06,4.33,2.9.97-2.08,2.58-2.9,4.48-2.9,2.93,0,4.77,1.9,4.77,5.4v10.74h-3.86v-9.65c0-1.75-.44-3.14-2.08-3.14-1.84,0-2.9,1.57-2.9,3.92v8.87h-3.86v-9.74c0-2.14-.82-3.05-2.08-3.05-2.11,0-2.93,2.02-2.93,4.68v8.11h-3.86Z"/>
  <path class="st0" d="M201.17,15.71c.15,2.65,1.73,3.86,3.75,3.86,1.52,0,2.69-.91,3.1-2.32l3.6.78c-1.05,3.23-3.4,4.86-6.94,4.86-4.01,0-7.38-2.68-7.38-8.29s3.4-8.29,7.38-8.29,7.2,2.71,7.2,7.75c0,.69-.03,1.57-.03,1.66h-10.68ZM201.23,12.9h6.7c-.12-1.96-1.4-3.29-3.34-3.29-1.55,0-3.1,1.12-3.37,3.29Z"/>
  <path class="st0" d="M216.75,22.43V6.75h3.6v2.26c1.11-1.93,2.52-2.71,4.42-2.71,4.21,0,5.44,2.77,5.44,6.52v9.62h-3.86v-9.5c0-2.08-.7-3.29-2.58-3.29s-3.16,1.45-3.16,4.25v8.54h-3.86Z"/>
  <path class="st0" d="M243.71,22.28c-.59.3-1.96.45-2.52.45-3.19,0-4.19-1.81-4.19-4.89v-7.96h-2.17v-3.14h2.17v-3.5l3.86-1.3v4.8h2.81v3.14h-2.81v7.06c0,1.36,0,2.32,1.38,2.32.29,0,.73-.03,1.2-.18l.26,3.2Z"/>
</svg>