<?xml version="1.0" encoding="UTF-8"?>
<svg id="Layer_1" xmlns="http://www.w3.org/2000/svg" version="1.1" viewBox="0 0 240 69">
  <!-- Generator: Adobe Illustrator 29.0.0, SVG Export Plug-In . SVG Version: 2.1.0 Build 186)  -->
  <defs>
    <style>
      .st0 {
        fill: #183b65;
      }
    </style>
  </defs>
  <path class="st0" d="M54.68,27.29c-1.58,0-2.91-.76-2.91-2.5,0-1.85,1.45-2.59,3.35-2.77.9-.08,1.91-.24,2.33-.45v-.33c0-1.33-.84-1.83-1.97-1.83-1.07,0-1.76.59-2.05,1.71l-1.4-.31c.43-1.98,1.96-2.59,3.6-2.59,2.28,0,3.3,1.15,3.3,3.31v3.76c0,.88.16,1.43.46,1.74h-1.49c-.25-.23-.3-.64-.35-1.05-.85.95-1.86,1.31-2.87,1.31ZM57.45,22.71c-.38.18-1.33.36-2.17.5-.9.15-1.97.34-1.97,1.52,0,1.09.8,1.38,1.59,1.38,1.1,0,2.1-.79,2.55-1.36v-2.03h0Z"/>
  <path class="st0" d="M62.52,30.33v-11.86h1.31v1.17c.49-.83,1.28-1.42,2.41-1.42,2.37,0,3.66,1.86,3.66,4.53s-1.3,4.53-3.66,4.53c-1.02,0-1.76-.46-2.25-1.15v4.21h-1.48,0ZM66.16,26.05c1.3,0,2.27-1.12,2.27-3.3s-.97-3.3-2.27-3.3c-1.13,0-2.35,1.12-2.35,3.3s1.05,3.3,2.35,3.3Z"/>
  <path class="st0" d="M76.43,27.04c-.33.1-.77.17-1.08.17-1.79,0-2-.99-2-2.67v-4.93h-1.22v-1.14h1.22v-2.26l1.48-.71v2.97h1.46v1.14h-1.46v5.02c0,.74,0,1.27.77,1.27.16,0,.41-.02.67-.1l.16,1.26h0v-.02Z"/>
  <path class="st0" d="M79.36,27.04v-8.57h2.02v1.22c.59-1.05,1.33-1.47,2.46-1.47,1.25,0,2.09.57,2.43,1.58.54-1.14,1.45-1.58,2.51-1.58,1.64,0,2.68,1.04,2.68,2.95v5.87h-2.17v-5.28c0-.96-.25-1.71-1.17-1.71-1.03,0-1.63.86-1.63,2.14v4.85h-2.17v-5.33c0-1.17-.46-1.66-1.17-1.66-1.18,0-1.64,1.1-1.64,2.55v4.43h-2.17.02,0Z"/>
  <path class="st0" d="M97.12,27.29c-1.56,0-2.87-.81-2.87-2.44,0-1.85,1.33-2.55,3.35-2.79.9-.1,1.56-.21,1.99-.41v-.23c0-.81-.46-1.43-1.53-1.43-.99,0-1.46.62-1.66,1.4l-1.89-.58c.43-1.98,2.07-2.59,3.68-2.59,2.2,0,3.56,1.04,3.56,3.54v3.53c0,.88.2,1.43.49,1.74h-2.18c-.25-.21-.33-.62-.38-.93-.74.89-1.54,1.19-2.56,1.19ZM99.59,23.03c-.31.14-.87.28-1.71.45-.79.15-1.46.4-1.43,1.22,0,.59.41.94,1.13.94.87,0,1.68-.61,2-1.19v-1.42h.01Z"/>
  <path class="st0" d="M105.08,27.04v-8.57h2.02v1.24c.62-1.05,1.41-1.48,2.48-1.48,2.37,0,3.05,1.52,3.05,3.57v5.26h-2.17v-5.19c0-1.14-.39-1.8-1.45-1.8s-1.77.79-1.77,2.33v4.67h-2.17v-.03h0Z"/>
  <path class="st0" d="M118.29,27.29c-1.56,0-2.87-.81-2.87-2.44,0-1.85,1.33-2.55,3.35-2.79.9-.1,1.56-.21,1.99-.41v-.23c0-.81-.46-1.43-1.53-1.43-.99,0-1.46.62-1.66,1.4l-1.89-.58c.43-1.98,2.07-2.59,3.68-2.59,2.2,0,3.56,1.04,3.56,3.54v3.53c0,.88.2,1.43.49,1.74h-2.18c-.25-.21-.33-.62-.38-.93-.74.89-1.54,1.19-2.56,1.19ZM120.75,23.03c-.31.14-.87.28-1.71.45-.79.15-1.46.4-1.43,1.22,0,.59.41.94,1.13.94.87,0,1.68-.61,2-1.19v-1.42h.01Z"/>
  <path class="st0" d="M129.64,30.5c-1.72,0-3.68-.88-3.68-2.92l2.09.21c.1.66.71.99,1.61.99,1.33,0,1.91-.79,1.89-2.05v-.5c-.49.66-1.28.92-2.07.92-2.14,0-3.73-1.57-3.73-4.47s1.54-4.48,3.68-4.48c1.02,0,1.79.48,2.28,1.31v-1.05h2v8.14c0,2.12-1.07,3.89-4.07,3.89h0ZM129.81,20.03c-1.07,0-1.89.84-1.89,2.67s.77,2.66,1.91,2.66,1.91-.83,1.91-2.66-.9-2.67-1.92-2.67h-.01Z"/>
  <path class="st0" d="M138.62,23.36c.08,1.45.97,2.11,2.1,2.11.85,0,1.51-.5,1.74-1.27l2.02.43c-.59,1.76-1.91,2.66-3.89,2.66-2.25,0-4.14-1.47-4.14-4.53s1.91-4.53,4.14-4.53,4.04,1.48,4.04,4.24c0,.38-.02.86-.02.91h-6v-.02h0ZM138.65,21.83h3.76c-.07-1.07-.79-1.8-1.87-1.8-.87,0-1.74.61-1.89,1.8Z"/>
  <path class="st0" d="M147.36,27.04v-8.57h2.02v1.22c.59-1.05,1.33-1.47,2.46-1.47,1.25,0,2.09.57,2.43,1.58.54-1.14,1.45-1.58,2.51-1.58,1.64,0,2.68,1.04,2.68,2.95v5.87h-2.17v-5.28c0-.96-.25-1.71-1.17-1.71-1.03,0-1.63.86-1.63,2.14v4.85h-2.17v-5.33c0-1.17-.46-1.66-1.17-1.66-1.18,0-1.64,1.1-1.64,2.55v4.43h-2.17.02Z"/>
  <path class="st0" d="M164.37,23.36c.08,1.45.97,2.11,2.1,2.11.85,0,1.51-.5,1.74-1.27l2.02.43c-.59,1.76-1.91,2.66-3.89,2.66-2.25,0-4.14-1.47-4.14-4.53s1.91-4.53,4.14-4.53,4.04,1.48,4.04,4.24c0,.38-.02.86-.02.91h-6v-.02h0ZM164.4,21.83h3.76c-.07-1.07-.79-1.8-1.87-1.8-.87,0-1.74.61-1.89,1.8Z"/>
  <path class="st0" d="M173.11,27.04v-8.57h2.02v1.24c.62-1.05,1.41-1.48,2.48-1.48,2.37,0,3.05,1.52,3.05,3.57v5.26h-2.17v-5.19c0-1.14-.39-1.8-1.45-1.8s-1.77.79-1.77,2.33v4.67h-2.17v-.03h0Z"/>
  <path class="st0" d="M188.24,26.96c-.33.17-1.1.24-1.41.24-1.79,0-2.35-.99-2.35-2.67v-4.35h-1.22v-1.71h1.22v-1.91l2.17-.71v2.62h1.58v1.71h-1.58v3.86c0,.74,0,1.27.77,1.27.16,0,.41-.02.67-.1l.15,1.74h0Z"/>
</svg>
