<?xml version="1.0" encoding="UTF-8"?>
<svg id="BeBold" xmlns="http://www.w3.org/2000/svg" version="1.1" viewBox="0 0 16.5 16.5">
  <!-- Generator: Adobe Illustrator 29.0.0, SVG Export Plug-In . SVG Version: 2.1.0 Build 186)  -->
  <defs>
    <style>
      .st0 {
        fill: #434142;
      }

      .st1 {
        fill: #fff;
      }
    </style>
  </defs>
  <circle class="st0" cx="8.25" cy="8.25" r="8"/>
  <g id="Instagram">
    <path class="st1" d="M8.25,6.9c-.74,0-1.35.6-1.36,1.35s.6,1.35,1.35,1.36c.74,0,1.35-.6,1.36-1.35h0c0-.74-.6-1.35-1.35-1.35h0Z"/>
    <path class="st1" d="M6.92,13.25c1.06,0,2.12.02,3.18-.02.34,0,.67-.04,1-.11,1.12-.23,1.95-1.16,2.07-2.28.04-.32.06-.64.06-.97,0-.53,0-1.07.02-1.85,0-.45-.02-1.14-.04-1.83,0-.29-.04-.58-.12-.86-.12-.53-.41-1-.81-1.36-.43-.37-.95-.6-1.52-.65-.29-.04-.57-.05-.86-.06-.56,0-1.13,0-1.69,0-.67,0-1.33,0-2,.03-.25,0-.5.04-.75.09-.54.1-1.04.37-1.43.77-.39.43-.64.96-.71,1.53-.04.32-.06.64-.06.97,0,.53-.02,1.06-.02,1.6,0,.74,0,1.48.04,2.21.02.31.07.62.17.93.19.61.6,1.11,1.14,1.44.41.23.87.37,1.35.39.32.03.65.04.98.04M8.25,10.81c-1.42,0-2.57-1.15-2.57-2.57s1.15-2.57,2.57-2.57,2.57,1.15,2.57,2.57-1.15,2.57-2.56,2.57h0ZM11.17,6.24c-.48,0-.87-.38-.87-.86s.38-.86.87-.86.87.38.87.86h0c0,.47-.39.86-.87.86h0Z"/>
  </g>
</svg>