<?xml version="1.0" encoding="UTF-8"?>
<svg id="Layer_1" xmlns="http://www.w3.org/2000/svg" xmlns:xlink="http://www.w3.org/1999/xlink" version="1.1" viewBox="0 0 240 163">
  <!-- Generator: Adobe Illustrator 29.0.0, SVG Export Plug-In . SVG Version: 2.1.0 Build 186)  -->
  <defs>
    <style>
      .st0 {
        fill: none;
      }

      .st1 {
        fill-opacity: .15;
      }

      .st1, .st2 {
        fill: #183b65;
      }

      .st3 {
        clip-path: url(#clippath);
      }
    </style>
    <clipPath id="clippath">
      <rect class="st0" x="20" y="29.5" width="200" height="48"/>
    </clipPath>
  </defs>
  <rect class="st1" width="240" height="163"/>
  <g class="st3">
    <g>
      <path class="st2" d="M115.96,45.16c-1.05,0-2.07.36-3.09.98-.08-.54-.54-.98-1.29-.97-1.1,0-2.5.78-3.83,1.83l.28.31c2.11-1.41,2.93-1.1,1.76.82l-1.91,3c-.56.82-.98,1.75-.98,2.54,0,.43.27,1.25.71,1.25.15,0,.31-.12.46-.35l3.17-4.98c1.22-1.87,2.53-3.66,4.11-3.66.54,0,.9.28.9.9,0,.51-.08.82-.39,1.4l.35.3,1.99-2.03c-.35-1.01-1.25-1.33-2.22-1.33h-.01Z"/>
      <path class="st2" d="M65.42,52.44l4.77-7.55-.43-.15c-.58.57-1.25,1.03-1.99,1.36-.43-.7-1.22-.93-2.04-.93-3.63,0-9.07,4.36-9.07,7.95,0,.97.54,1.79,1.6,1.79,1.13,0,2.66-.35,4.61-2.18-.62,1.05-.23,2.18,1.05,2.18,1.1,0,2.5-.78,3.83-1.83l-.28-.31c-1.92,1.28-2.78,1.13-2.07-.31h.02ZM60.1,53.53c-.59,0-.9-.51-.9-1.16,0-2.61,3.8-6.7,6.3-6.7.54,0,.9.31.9.93s-.66,1.6-1.13,2.38c-1.68,2.69-3.67,4.56-5.16,4.56Z"/>
      <path class="st2" d="M77.94,52.44l5.9-9.34c9.11-1.21,21.61-3.74,21.61-9.78,0-3-4.11-3.82-6.22-3.82-5.44,0-12.12,4.6-17.12,12.58l-.28.43c-.36,0-.71.03-1.05.03-4.26,0-8.88-1.16-8.88-4.79,0-2.8,2.96-3.7,5.89-3.7,1.79,0,3.55.35,4.57.82l.28-.35c-1.05-.54-2.97-.93-4.97-.93-5.05,0-7.47,2.26-7.47,4.59,0,2.57,2.97,5.26,8.72,5.26.74,0,1.53,0,2.35-.08l-1.4,2.3c-.43-.35-1.05-.51-1.64-.51-3.63,0-9.06,4.36-9.06,7.95,0,.97.54,1.79,1.6,1.79,1.13,0,2.66-.35,4.61-2.18-.62,1.05-.23,2.18,1.06,2.18,1.1,0,2.5-.78,3.83-1.83l-.28-.31c-1.92,1.28-2.78,1.13-2.07-.31h.01ZM84.64,41.82c2.93-4.64,8.91-11.84,14.5-11.84,1.76,0,3.95.77,3.95,3.16,0,6.42-12.99,8.53-18.81,9.19l.35-.51h.01ZM72.62,53.53c-.59,0-.9-.51-.9-1.16,0-2.61,3.8-6.7,6.3-6.7.54,0,.9.31.9.93s-.66,1.6-1.13,2.38c-1.68,2.69-3.67,4.56-5.16,4.56Z"/>
      <path class="st2" d="M52.65,49.44c-1.02,0-1.72.43-2.07.9l.35.28c.3-.27.69-.42,1.1-.43,1.17,0,1.53.82,1.53,1.56,0,1.48-1.09,2.57-2.62,2.57-4.85-.03-1.91-7.87-6.72-9.11,3.29-.7,5.74-2.3,5.74-4.83,0-2.15-1.64-3.51-3.67-4.29.72-.36,1.5-.55,2.3-.59v-.46h-.31c-1.16,0-2.29.21-3.37.62-1.62-.4-3.29-.62-4.97-.62-4.69,0-11.45,2.57-11.45,7.52,0,1.79,1.17,3.74,3.87,3.74,1.17,0,2.73-.54,3.83-1.64l-.31-.35c-.79.75-1.84.98-2.66.98-1.79,0-2.78-1.75-2.78-2.96,0-4.83,5.31-6.74,9.5-6.74,1.45,0,2.78.2,3.87.59-7.23,4.13-7.59,18.19-18.1,18.19-2.04,0-3.75-.78-3.75-3.08,0-1.79,1.28-3.11,2.86-3.11.8-.02,1.56.38,1.99,1.05l.39-.2c-.54-1.18-1.76-1.68-3.01-1.68-2.7,0-4.18,1.8-4.18,3.9,0,2.77,2.81,3.66,5.43,3.66,4.29,0,8.52-2.23,11.26-5.37,3.55-4.21,5.24-10.13,8.48-12.73,1.13.78,1.84,1.91,1.84,3.47,0,3.08-2.47,4.49-4.92,4.75h-1.27v.46c7.04.16.82,9.39,10.13,9.39,3.04,0,4.57-1.64,4.57-3.08,0-1.28-1.1-2.34-2.86-2.34h-.02Z"/>
      <path class="st2" d="M93.29,49.09c.62-.98.86-1.68.86-2.38,0-1.25-.98-1.56-1.64-1.56-1.28,0-2.81.51-4.73,2.34l.08-.12c.66-1.05.28-2.23-1.01-2.23-1.1,0-2.5.78-3.83,1.83l.28.31c2.11-1.41,2.93-1.1,1.76.82l-1.88,3c-.56.82-.98,1.75-.98,2.54,0,.43.27,1.25.71,1.25.15,0,.31-.12.47-.35l2.22-3.54c1.41-2.3,3.44-4.56,5.59-4.56.43,0,.66.28.66.62,0,.59-.51,1.4-.66,1.68l-2.47,3.93c-.67,1.05-.28,2.23,1.02,2.23,1.09,0,2.5-.78,3.83-1.83l-.28-.31c-2.11,1.41-2.93,1.1-1.76-.82l1.76-2.84v-.03Z"/>
      <path class="st2" d="M103.57,44.97c-3.6,0-8.83,3.74-8.68,7.44.03,1.48.86,2.49,2.81,2.49,3.75,0,8.75-3.85,8.63-7.47-.04-1.48-.82-2.46-2.78-2.46h.01ZM97.94,54.43c-.62,0-.9-.43-.94-1.1-.08-2.53,3.71-7.91,6.3-7.91.59,0,.86.39.9,1.05.08,2.92-4.34,7.95-6.25,7.95h-.01Z"/>
      <path class="st2" d="M186.7,46.72c0-1.33-1.32-1.56-2.3-1.56-3.83,0-8.68,4.56-8.68,7.91,0,1.44,1.33,1.83,2.7,1.83,2.15,0,4.54-.93,7.19-2.65l-.27-.39c-1.91,1.01-4.11,1.68-5.39,1.68-1.13,0-1.69-.28-1.69-1.16.01-.45.09-.9.23-1.33,2.62-.31,8.21-1.16,8.21-4.32h.01ZM183.77,45.9c.54,0,.79.28.79.9,0,2.42-4.06,3.51-5.74,3.58,1.02-2.13,2.93-4.47,4.96-4.47h-.01Z"/>
      <path class="st2" d="M207.26,45.13c-.31,0-.43.12-.43.23,0-.07.51,1.21.51,2.03,0,4.98-4.97,6.31-6.1,6.31-.46,0-.59-.18-.59-.47.02-.32.13-.63.31-.9l3.09-4.95c.66-1.05.28-2.23-1.02-2.23-1.1,0-2.5.78-3.83,1.83l.28.31c2.11-1.41,2.93-1.1,1.76.82l-2.35,3.77c-.47.78-.82,1.6-.82,2.38,0,.59.74.62,1.1.62,3.14,0,10.24-3.62,10.24-7.44,0-1.75-1.09-2.34-2.15-2.34v.02Z"/>
      <path class="st2" d="M196.59,45.16c-1.05,0-2.07.36-3.09.98-.08-.54-.54-.98-1.29-.98-1.1,0-2.5.78-3.83,1.83l.28.31c2.11-1.41,2.93-1.1,1.76.82l-1.92,3c-.56.82-.98,1.75-.98,2.54,0,.43.28,1.25.71,1.25.15,0,.31-.12.46-.35l3.17-4.98c1.21-1.87,2.53-3.66,4.11-3.66.54,0,.9.28.9.9,0,.51-.08.82-.39,1.4l.35.31,1.99-2.03c-.35-1.01-1.25-1.33-2.22-1.33h0Z"/>
      <path class="st2" d="M220,46.72c0-1.33-1.32-1.56-2.3-1.56-3.83,0-8.68,4.56-8.68,7.91,0,1.44,1.33,1.83,2.7,1.83,2.15,0,4.54-.93,7.19-2.65l-.27-.39c-1.92,1.01-4.11,1.68-5.39,1.68-1.13,0-1.69-.28-1.69-1.16.01-.45.09-.9.23-1.33,2.62-.31,8.21-1.16,8.21-4.32h.01ZM217.07,45.9c.54,0,.79.28.79.9,0,2.42-4.06,3.51-5.74,3.58,1.02-2.13,2.93-4.47,4.97-4.47h-.01Z"/>
      <path class="st2" d="M173.14,45.16c-2.58,0-5.31,1.56-5.31,3.39,0,2.18,3.63,2.38,3.63,3.74,0,1.16-1.76,2.15-3.04,2.15-1.13,0-1.53-.78-1.53-1.48,0-.44.12-.87.31-1.25l-.35-.2-1.99,2.03c.59.93,1.92,1.36,3.4,1.36,2.78,0,5.56-1.67,5.56-3.28,0-2.21-3.64-2.72-3.64-3.9,0-1.25,1.6-2.1,2.62-2.1s1.45.59,1.45,1.21c-.02.51-.15.99-.39,1.44l.31.23,1.76-1.79c-.35-1.01-1.53-1.56-2.78-1.56h-.01Z"/>
      <path class="st2" d="M154.8,48.51l1.99-2.03c-.35-1.01-1.25-1.33-2.22-1.33-1.05,0-2.07.36-3.09.98-.08-.54-.54-.98-1.3-.97-1.1,0-2.5.78-3.83,1.83l.28.31c2.11-1.41,2.93-1.1,1.76.82l-1.92,3c-.56.82-.98,1.75-.98,2.54,0,.43.27,1.25.71,1.25.15,0,.31-.12.48-.35l3.17-4.98c1.21-1.87,2.54-3.66,4.11-3.66.54,0,.9.28.9.9,0,.51-.08.82-.39,1.4l.36.3h-.01Z"/>
      <path class="st2" d="M152.23,40.38c0-2.15-1.64-3.51-3.67-4.29.72-.36,1.52-.55,2.32-.59v-.47h-.31c-1.16,0-2.29.21-3.37.62-1.62-.4-3.29-.62-4.97-.62-4.69,0-11.45,2.57-11.45,7.52,0,1.79,1.17,3.74,3.86,3.74,1.17,0,2.73-.54,3.83-1.64l-.31-.35c-.79.75-1.84.98-2.66.98-1.79,0-2.78-1.75-2.78-2.96,0-4.83,5.31-6.74,9.5-6.74,1.45,0,2.78.2,3.87.59-7.23,4.13-7.59,18.19-18.1,18.19-2.04,0-3.75-.78-3.75-3.08,0-1.79,1.28-3.11,2.86-3.11.8-.02,1.56.38,1.99,1.05l.39-.2c-.54-1.18-1.76-1.68-3.01-1.68-2.7,0-4.18,1.8-4.18,3.9,0,2.77,2.81,3.66,5.43,3.66,4.31,0,8.52-2.23,11.26-5.37,3.55-4.21,5.24-10.13,8.48-12.73,1.13.78,1.84,1.91,1.84,3.47,0,3.23-2.7,4.64-5.31,4.79l.05.47c4.46-.31,8.21-2.03,8.21-5.14h-.02Z"/>
      <path class="st2" d="M59.72,75.63h-3.81l-.79,1.79h-1.05l3.24-7.14h1.01l3.25,7.14h-1.08l-.79-1.79h.01ZM59.36,74.81l-1.54-3.49-1.54,3.49h3.09-.01Z"/>
      <path class="st2" d="M69.27,70.95c.53.44.8,1.05.8,1.82s-.27,1.38-.8,1.82c-.53.44-1.26.66-2.19.66h-1.77v2.16h-1.02v-7.14h2.79c.93,0,1.66.22,2.19.67h0ZM68.54,73.96c.34-.28.51-.67.51-1.19s-.17-.91-.51-1.19c-.34-.28-.83-.42-1.48-.42h-1.74v3.19h1.74c.65,0,1.15-.14,1.48-.42h0Z"/>
      <path class="st2" d="M77.43,75.63h-3.81l-.79,1.79h-1.05l3.24-7.14h1.01l3.25,7.14h-1.08l-.79-1.79h.01ZM77.07,74.81l-1.54-3.49-1.54,3.49h3.09-.01Z"/>
      <path class="st2" d="M86.78,77.42l-1.54-2.19c-.19.01-.34.02-.45.02h-1.77v2.17h-1.02v-7.14h2.79c.93,0,1.66.22,2.19.67.53.45.8,1.05.8,1.82,0,.55-.14,1.01-.41,1.41-.27.39-.66.67-1.17.84l1.7,2.4h-1.12ZM86.24,73.96c.34-.28.51-.68.51-1.19s-.17-.91-.51-1.19c-.34-.28-.83-.42-1.48-.42h-1.74v3.21h1.74c.65,0,1.15-.14,1.48-.42Z"/>
      <path class="st2" d="M92.4,71.17h-2.45v-.89h5.93v.89h-2.45v6.25h-1.01v-6.25h-.01Z"/>
      <path class="st2" d="M105.27,77.42v-5.2l-2.59,4.34h-.48l-2.59-4.3v5.17h-.98v-7.14h.83l2.99,5.02,2.95-5.02h.83v7.14h-.97.01Z"/>
      <path class="st2" d="M115.24,76.53v.89h-5.2v-7.14h5.06v.89h-4.03v2.19h3.59v.86h-3.59v2.31h4.18-.01Z"/>
      <path class="st2" d="M124.7,70.28v7.14h-.83l-4.29-5.32v5.32h-1.02v-7.14h.83l4.29,5.32v-5.32h1.02Z"/>
      <path class="st2" d="M129.92,71.17h-2.45v-.89h5.93v.89h-2.45v6.25h-1.01v-6.25h-.01Z"/>
      <path class="st2" d="M146.7,70.28v7.14h-1.02v-3.18h-4.11v3.18h-1.02v-7.14h1.02v3.07h4.11v-3.07h1.02Z"/>
      <path class="st2" d="M151.77,77.03c-.58-.31-1.03-.75-1.37-1.31-.34-.57-.5-1.18-.5-1.87s.16-1.3.5-1.87c.34-.55.79-.99,1.37-1.31.58-.32,1.23-.47,1.96-.47s1.37.16,1.94.47c.58.31,1.03.75,1.37,1.3.32.55.49,1.18.49,1.87s-.16,1.31-.49,1.87c-.32.55-.78.99-1.37,1.3-.58.31-1.23.47-1.94.47s-1.38-.16-1.96-.47v.02ZM155.14,76.23c.42-.24.75-.57.99-.98.24-.42.36-.89.36-1.4s-.12-.98-.36-1.41c-.24-.43-.58-.75-.99-.98-.42-.24-.89-.36-1.41-.36s-1,.12-1.42.36-.76.57-1.01.98-.36.89-.36,1.41.13.98.36,1.4c.24.42.58.75,1.01.98.43.24.9.36,1.42.36s1-.12,1.41-.36Z"/>
      <path class="st2" d="M167.37,77.42v-5.2l-2.59,4.34h-.47l-2.59-4.3v5.17h-.98v-7.14h.83l2.99,5.02,2.95-5.02h.83v7.14h-.97.01Z"/>
      <path class="st2" d="M177.35,76.53v.89h-5.2v-7.14h5.06v.89h-4.03v2.19h3.59v.86h-3.59v2.31h4.18-.01Z"/>
      <path class="st2" d="M181.17,77.25c-.5-.16-.89-.38-1.18-.65l.38-.8c.28.24.62.44,1.05.6.43.15.87.23,1.32.23.59,0,1.04-.1,1.33-.3.29-.2.44-.46.44-.8,0-.24-.08-.44-.24-.6-.16-.15-.36-.27-.59-.35-.23-.08-.57-.17-.99-.28-.54-.13-.97-.25-1.31-.39-.33-.13-.61-.32-.85-.6-.23-.27-.35-.63-.35-1.08,0-.38.1-.73.3-1.03.2-.3.51-.55.91-.74s.92-.28,1.53-.28c.43,0,.83.06,1.25.16.4.1.76.27,1.05.47l-.34.82c-.3-.18-.62-.33-.96-.44s-.67-.15-1.01-.15c-.58,0-1.02.1-1.31.31-.29.21-.44.48-.44.82,0,.24.08.44.24.6.16.16.37.28.61.36.24.08.57.17.98.27.54.13.97.25,1.3.39.32.13.61.32.85.59.23.27.35.62.35,1.07,0,.37-.1.72-.31,1.03-.21.31-.51.55-.93.74-.42.18-.93.27-1.54.27-.54,0-1.05-.08-1.56-.25Z"/>
      <path class="st2" d="M203.09,61.95H36.32v.58h166.77v-.58Z"/>
      <path class="st2" d="M165.44,46.72c0-1.33-1.32-1.56-2.3-1.56-3.83,0-8.68,4.56-8.68,7.91,0,1.44,1.33,1.83,2.7,1.83,2.15,0,4.54-.93,7.19-2.65l-.27-.39c-1.91,1.01-4.11,1.68-5.39,1.68-1.13,0-1.69-.28-1.69-1.16.01-.45.09-.9.23-1.33,2.62-.31,8.21-1.16,8.21-4.32h.01ZM162.5,45.9c.54,0,.79.28.79.9,0,2.42-4.07,3.51-5.75,3.58,1.02-2.13,2.93-4.47,4.96-4.47Z"/>
    </g>
  </g>
  <path class="st2" d="M54.68,121.29c-1.58,0-2.91-.76-2.91-2.5,0-1.85,1.45-2.59,3.35-2.77.9-.08,1.91-.24,2.33-.45v-.33c0-1.33-.84-1.83-1.97-1.83-1.07,0-1.76.59-2.05,1.71l-1.4-.31c.43-1.98,1.96-2.59,3.6-2.59,2.28,0,3.3,1.15,3.3,3.31v3.76c0,.88.16,1.43.46,1.74h-1.49c-.25-.23-.3-.64-.35-1.05-.85.95-1.86,1.31-2.87,1.31ZM57.45,116.71c-.38.18-1.33.36-2.17.5-.9.15-1.97.34-1.97,1.52,0,1.09.8,1.38,1.59,1.38,1.1,0,2.1-.79,2.55-1.36v-2.03h0Z"/>
  <path class="st2" d="M62.52,124.33v-11.86h1.31v1.17c.49-.83,1.28-1.42,2.41-1.42,2.37,0,3.66,1.86,3.66,4.53s-1.3,4.53-3.66,4.53c-1.02,0-1.76-.46-2.25-1.15v4.21h-1.48,0ZM66.16,120.05c1.3,0,2.27-1.12,2.27-3.3s-.97-3.3-2.27-3.3c-1.13,0-2.35,1.12-2.35,3.3s1.05,3.3,2.35,3.3Z"/>
  <path class="st2" d="M76.43,121.04c-.33.1-.77.17-1.08.17-1.79,0-2-.99-2-2.67v-4.93h-1.22v-1.14h1.22v-2.26l1.48-.71v2.97h1.46v1.14h-1.46v5.02c0,.74,0,1.27.77,1.27.16,0,.41-.02.67-.1l.16,1.26h0Z"/>
  <path class="st2" d="M79.36,121.04v-8.57h2.02v1.22c.59-1.05,1.33-1.47,2.46-1.47,1.25,0,2.09.57,2.43,1.58.54-1.14,1.45-1.58,2.51-1.58,1.64,0,2.68,1.04,2.68,2.95v5.87h-2.17v-5.28c0-.96-.25-1.71-1.17-1.71-1.03,0-1.63.86-1.63,2.14v4.85h-2.17v-5.33c0-1.17-.46-1.66-1.17-1.66-1.18,0-1.64,1.1-1.64,2.55v4.43h-2.17.02Z"/>
  <path class="st2" d="M97.12,121.29c-1.56,0-2.87-.81-2.87-2.44,0-1.85,1.33-2.55,3.35-2.79.9-.1,1.56-.21,1.99-.41v-.23c0-.81-.46-1.43-1.53-1.43-.99,0-1.46.62-1.66,1.4l-1.89-.58c.43-1.98,2.07-2.59,3.68-2.59,2.2,0,3.56,1.04,3.56,3.54v3.53c0,.88.2,1.43.49,1.74h-2.18c-.25-.21-.33-.62-.38-.93-.74.89-1.54,1.19-2.56,1.19ZM99.59,117.03c-.31.14-.87.28-1.71.45-.79.15-1.46.4-1.43,1.22,0,.59.41.94,1.13.94.87,0,1.68-.61,2-1.19v-1.42h0Z"/>
  <path class="st2" d="M105.08,121.04v-8.57h2.02v1.24c.62-1.05,1.41-1.48,2.48-1.48,2.37,0,3.05,1.52,3.05,3.57v5.26h-2.17v-5.19c0-1.14-.39-1.8-1.45-1.8s-1.77.79-1.77,2.33v4.67h-2.17,0Z"/>
  <path class="st2" d="M118.29,121.29c-1.56,0-2.87-.81-2.87-2.44,0-1.85,1.33-2.55,3.35-2.79.9-.1,1.56-.21,1.99-.41v-.23c0-.81-.46-1.43-1.53-1.43-.99,0-1.46.62-1.66,1.4l-1.89-.58c.43-1.98,2.07-2.59,3.68-2.59,2.2,0,3.56,1.04,3.56,3.54v3.53c0,.88.2,1.43.49,1.74h-2.18c-.25-.21-.33-.62-.38-.93-.74.89-1.54,1.19-2.56,1.19ZM120.75,117.03c-.31.14-.87.28-1.71.45-.79.15-1.46.4-1.43,1.22,0,.59.41.94,1.13.94.87,0,1.68-.61,2-1.19v-1.42h.01Z"/>
  <path class="st2" d="M129.64,124.5c-1.72,0-3.68-.88-3.68-2.92l2.09.21c.1.66.71.99,1.61.99,1.33,0,1.91-.79,1.89-2.05v-.5c-.49.66-1.28.92-2.07.92-2.14,0-3.73-1.57-3.73-4.47s1.54-4.48,3.68-4.48c1.02,0,1.79.48,2.28,1.31v-1.05h2v8.14c0,2.12-1.07,3.89-4.07,3.89ZM129.81,114.03c-1.07,0-1.89.84-1.89,2.67s.77,2.66,1.91,2.66,1.91-.83,1.91-2.66-.9-2.67-1.92-2.67h0Z"/>
  <path class="st2" d="M138.62,117.36c.08,1.45.97,2.11,2.1,2.11.85,0,1.51-.5,1.74-1.27l2.02.43c-.59,1.76-1.91,2.66-3.89,2.66-2.25,0-4.14-1.47-4.14-4.53s1.91-4.53,4.14-4.53,4.04,1.48,4.04,4.24c0,.38-.02.86-.02.91h-6v-.02ZM138.65,115.83h3.76c-.07-1.07-.79-1.8-1.87-1.8-.87,0-1.74.61-1.89,1.8Z"/>
  <path class="st2" d="M147.36,121.04v-8.57h2.02v1.22c.59-1.05,1.33-1.47,2.46-1.47,1.25,0,2.09.57,2.43,1.58.54-1.14,1.45-1.58,2.51-1.58,1.64,0,2.68,1.04,2.68,2.95v5.87h-2.17v-5.28c0-.96-.25-1.71-1.17-1.71-1.03,0-1.63.86-1.63,2.14v4.85h-2.17v-5.33c0-1.17-.46-1.66-1.17-1.66-1.18,0-1.64,1.1-1.64,2.55v4.43h-2.17.02Z"/>
  <path class="st2" d="M164.37,117.36c.08,1.45.97,2.11,2.1,2.11.85,0,1.51-.5,1.74-1.27l2.02.43c-.59,1.76-1.91,2.66-3.89,2.66-2.25,0-4.14-1.47-4.14-4.53s1.91-4.53,4.14-4.53,4.04,1.48,4.04,4.24c0,.38-.02.86-.02.91h-6v-.02ZM164.4,115.83h3.76c-.07-1.07-.79-1.8-1.87-1.8-.87,0-1.74.61-1.89,1.8Z"/>
  <path class="st2" d="M173.11,121.04v-8.57h2.02v1.24c.62-1.05,1.41-1.48,2.48-1.48,2.37,0,3.05,1.52,3.05,3.57v5.26h-2.17v-5.19c0-1.14-.39-1.8-1.45-1.8s-1.77.79-1.77,2.33v4.67h-2.17.01Z"/>
  <path class="st2" d="M188.24,120.96c-.33.17-1.1.24-1.41.24-1.79,0-2.35-.99-2.35-2.67v-4.35h-1.22v-1.71h1.22v-1.91l2.17-.71v2.62h1.58v1.71h-1.58v3.86c0,.74,0,1.27.77,1.27.16,0,.41-.02.67-.1l.15,1.74h0Z"/>
  <path class="st2" d="M51.76,128.24v-.64h.61v.64h-.61ZM51.76,132.17v-3.3h.61v3.3h-.61Z"/>
  <path class="st2" d="M53.59,132.17v-3.3h.55v.48c.26-.41.64-.57,1.13-.57.98,0,1.22.59,1.22,1.37v2.03h-.61v-2c0-.57-.2-.91-.73-.91-.56,0-.94.4-.94,1.12v1.79h-.62Z"/>
  <path class="st2" d="M58.69,132.17l-1.35-3.3h.63l.99,2.64,1.01-2.64h.62l-1.34,3.3h-.56Z"/>
  <path class="st2" d="M61.84,130.66c.06.79.53,1.13,1.05,1.13.42,0,.83-.24.95-.74l.58.12c-.2.74-.79,1.1-1.56,1.1-.98,0-1.63-.66-1.63-1.75s.64-1.75,1.63-1.75c1.07,0,1.61.72,1.61,1.68v.21h-2.63ZM61.86,130.2h1.95c-.03-.56-.38-.96-.96-.96-.42,0-.88.29-.99.96Z"/>
  <path class="st2" d="M65.87,131.13c.05.35.29.66.88.66.35,0,.8-.11.8-.48,0-.25-.12-.39-.49-.48l-.87-.22c-.47-.12-.89-.32-.89-.87,0-.69.64-.98,1.37-.98.85,0,1.29.39,1.35.96l-.59.07c-.05-.36-.31-.55-.77-.55-.51,0-.77.17-.77.44,0,.23.23.33.44.38l.96.24c.44.12.87.33.87.96,0,.73-.72,1-1.43,1-.87,0-1.4-.38-1.46-1.04l.59-.08h.01Z"/>
  <path class="st2" d="M70.66,132.17c-.14.04-.32.06-.45.06-.74,0-.83-.38-.83-1.03v-1.9h-.51v-.44h.51v-.87l.62-.27v1.14h.61v.44h-.61v1.93c0,.29,0,.49.32.49.07,0,.17,0,.28-.04l.07.49h0Z"/>
  <path class="st2" d="M71.71,132.17v-3.3h.55v.47c.25-.41.6-.57,1.07-.57.52,0,.87.22,1.01.61.23-.44.65-.61,1.09-.61.73,0,1.11.4,1.11,1.13v2.26h-.61v-2.07c0-.44-.1-.84-.63-.84-.62,0-.87.46-.87,1v1.91h-.61v-2.14c0-.5-.21-.77-.63-.77-.73,0-.87.6-.87,1.21v1.71h-.61Z"/>
  <path class="st2" d="M78.19,130.66c.06.79.53,1.13,1.05,1.13.42,0,.83-.24.95-.74l.58.12c-.2.74-.79,1.1-1.56,1.1-.98,0-1.63-.66-1.63-1.75s.64-1.75,1.63-1.75c1.07,0,1.61.72,1.61,1.68v.21h-2.63ZM78.21,130.2h1.95c-.03-.56-.38-.96-.96-.96-.42,0-.88.29-.99.96Z"/>
  <path class="st2" d="M81.82,132.17v-3.3h.55v.48c.26-.41.64-.57,1.13-.57.98,0,1.22.59,1.22,1.37v2.03h-.62v-2c0-.57-.2-.91-.73-.91-.56,0-.94.4-.94,1.12v1.79h-.61Z"/>
  <path class="st2" d="M87.43,132.17c-.14.04-.32.06-.45.06-.74,0-.83-.38-.83-1.03v-1.9h-.51v-.44h.51v-.87l.62-.27v1.14h.61v.44h-.61v1.93c0,.29,0,.49.32.49.07,0,.17,0,.28-.04l.07.49h0Z"/>
  <path class="st2" d="M91.59,129.9c.4,0,.73.29.73.65s-.32.66-.73.66-.73-.29-.73-.66.33-.65.73-.65Z"/>
  <path class="st2" d="M98.79,127.6v4.57h-.55v-.45c-.2.32-.53.55-1,.55-.98,0-1.52-.72-1.52-1.75s.54-1.75,1.52-1.75c.42,0,.73.18.94.44v-1.62h.62,0ZM97.27,129.25c-.54,0-.94.43-.94,1.27s.4,1.27.94,1.27c.47,0,.98-.43.98-1.27s-.44-1.27-.98-1.27Z"/>
  <path class="st2" d="M100.42,130.66c.06.79.53,1.13,1.05,1.13.42,0,.83-.24.95-.74l.58.12c-.2.74-.79,1.1-1.56,1.1-.98,0-1.63-.66-1.63-1.75s.64-1.75,1.63-1.75c1.07,0,1.61.72,1.61,1.68v.21h-2.63ZM100.44,130.2h1.95c-.03-.56-.38-.96-.96-.96-.42,0-.88.29-.99.96Z"/>
  <path class="st2" d="M105.03,132.17l-1.35-3.3h.63l.99,2.64,1.01-2.64h.62l-1.34,3.3h-.56Z"/>
  <path class="st2" d="M108.18,130.66c.06.79.53,1.13,1.05,1.13.42,0,.83-.24.95-.74l.58.12c-.2.74-.79,1.1-1.56,1.1-.98,0-1.63-.66-1.63-1.75s.64-1.75,1.63-1.75c1.07,0,1.61.72,1.61,1.68v.21h-2.63ZM108.2,130.2h1.95c-.03-.56-.38-.96-.96-.96-.42,0-.88.29-.99.96Z"/>
  <path class="st2" d="M111.82,132.17v-4.42l.61-.25v4.67h-.61Z"/>
  <path class="st2" d="M115.11,128.77c.98,0,1.66.66,1.66,1.75s-.68,1.75-1.66,1.75-1.66-.66-1.66-1.75.68-1.75,1.66-1.75ZM115.11,131.79c.54,0,1.05-.37,1.05-1.27s-.51-1.27-1.05-1.27-1.05.37-1.05,1.27.51,1.27,1.05,1.27Z"/>
  <path class="st2" d="M117.78,133.44v-4.57h.55v.45c.21-.32.53-.55,1-.55.98,0,1.52.72,1.52,1.75s-.54,1.75-1.52,1.75c-.42,0-.73-.18-.94-.44v1.62h-.61ZM119.3,131.79c.54,0,.94-.43.94-1.27s-.4-1.27-.94-1.27c-.47,0-.98.43-.98,1.27s.44,1.27.98,1.27Z"/>
  <path class="st2" d="M121.87,132.17v-3.3h.55v.47c.25-.41.6-.57,1.07-.57.52,0,.87.22,1.01.61.23-.44.65-.61,1.09-.61.73,0,1.11.4,1.11,1.13v2.26h-.61v-2.07c0-.44-.1-.84-.63-.84-.62,0-.87.46-.87,1v1.91h-.61v-2.14c0-.5-.21-.77-.63-.77-.73,0-.87.6-.87,1.21v1.71h-.61Z"/>
  <path class="st2" d="M128.35,130.66c.06.79.53,1.13,1.05,1.13.42,0,.83-.24.95-.74l.58.12c-.2.74-.79,1.1-1.56,1.1-.98,0-1.63-.66-1.63-1.75s.64-1.75,1.63-1.75c1.07,0,1.61.72,1.61,1.68v.21h-2.63ZM128.37,130.2h1.95c-.03-.56-.38-.96-.96-.96-.42,0-.88.29-.99.96Z"/>
  <path class="st2" d="M131.99,132.17v-3.3h.55v.48c.26-.41.64-.57,1.13-.57.98,0,1.22.59,1.22,1.37v2.03h-.61v-2c0-.57-.2-.91-.73-.91-.56,0-.94.4-.94,1.12v1.79h-.62Z"/>
  <path class="st2" d="M137.6,132.17c-.14.04-.32.06-.45.06-.74,0-.83-.38-.83-1.03v-1.9h-.51v-.44h.51v-.87l.62-.27v1.14h.61v.44h-.61v1.93c0,.29,0,.49.32.49.07,0,.17,0,.28-.04l.07.49h0Z"/>
  <path class="st2" d="M141.75,129.9c.4,0,.73.29.73.65s-.32.66-.73.66-.73-.29-.73-.66.33-.65.73-.65Z"/>
  <path class="st2" d="M146.08,132.17v-3.3h.55v.47c.25-.41.6-.57,1.07-.57.52,0,.87.22,1.01.61.23-.44.65-.61,1.09-.61.73,0,1.11.4,1.11,1.13v2.26h-.61v-2.07c0-.44-.1-.84-.63-.84-.62,0-.87.46-.87,1v1.91h-.61v-2.14c0-.5-.21-.77-.63-.77-.73,0-.87.6-.87,1.21v1.71h-.61Z"/>
  <path class="st2" d="M153.15,132.27c-.66,0-1.21-.3-1.21-.96,0-.71.6-1,1.39-1.06.38-.03.79-.1.97-.17v-.13c0-.51-.35-.7-.82-.7-.44,0-.73.23-.85.66l-.58-.12c.18-.76.81-1,1.5-1,.95,0,1.37.44,1.37,1.28v1.45c0,.33.07.55.19.68h-.62c-.1-.09-.12-.24-.14-.41-.36.37-.77.5-1.2.5v-.02ZM154.31,130.5c-.16.07-.55.14-.9.19-.38.05-.82.14-.82.59,0,.42.33.53.66.53.46,0,.87-.31,1.06-.53v-.78h0Z"/>
  <path class="st2" d="M156.2,132.17v-3.3h.55v.48c.26-.41.64-.57,1.13-.57.98,0,1.22.59,1.22,1.37v2.03h-.61v-2c0-.57-.2-.91-.73-.91-.56,0-.94.4-.94,1.12v1.79h-.62Z"/>
  <path class="st2" d="M161.33,132.27c-.66,0-1.21-.3-1.21-.96,0-.71.6-1,1.39-1.06.38-.03.79-.1.97-.17v-.13c0-.51-.35-.7-.82-.7-.44,0-.73.23-.85.66l-.58-.12c.18-.76.81-1,1.5-1,.95,0,1.37.44,1.37,1.28v1.45c0,.33.07.55.19.68h-.62c-.1-.09-.12-.24-.14-.41-.36.37-.77.5-1.2.5v-.02ZM162.48,130.5c-.16.07-.55.14-.9.19-.38.05-.82.14-.82.59,0,.42.33.53.66.53.46,0,.87-.31,1.06-.53v-.78h0Z"/>
  <path class="st2" d="M165.68,133.5c-.67,0-1.38-.33-1.38-1.13l.58.08c.02.35.39.56.81.56.65,0,.95-.35.93-.96v-.24c-.2.27-.51.44-.94.44-.98,0-1.52-.72-1.52-1.75s.54-1.75,1.52-1.75c.47,0,.8.22,1,.55v-.45h.55v3.04c0,.82-.31,1.59-1.56,1.59h0ZM165.72,129.25c-.54,0-.94.43-.94,1.27s.4,1.27.94,1.27.98-.43.98-1.27-.51-1.27-.98-1.27Z"/>
  <path class="st2" d="M168.87,130.66c.06.79.53,1.13,1.05,1.13.42,0,.83-.24.95-.74l.58.12c-.2.74-.79,1.1-1.56,1.1-.98,0-1.63-.66-1.63-1.75s.64-1.75,1.63-1.75c1.07,0,1.61.72,1.61,1.68v.21h-2.63ZM168.89,130.2h1.95c-.03-.56-.38-.96-.96-.96-.42,0-.88.29-.99.96Z"/>
  <path class="st2" d="M172.51,132.17v-3.3h.55v.47c.25-.41.6-.57,1.07-.57.52,0,.87.22,1.01.61.23-.44.65-.61,1.09-.61.73,0,1.11.4,1.11,1.13v2.26h-.61v-2.07c0-.44-.1-.84-.63-.84-.62,0-.87.46-.87,1v1.91h-.61v-2.14c0-.5-.21-.77-.63-.77-.73,0-.87.6-.87,1.21v1.71h-.61Z"/>
  <path class="st2" d="M178.99,130.66c.06.79.53,1.13,1.05,1.13.42,0,.83-.24.95-.74l.58.12c-.2.74-.79,1.1-1.56,1.1-.98,0-1.63-.66-1.63-1.75s.64-1.75,1.63-1.75c1.07,0,1.61.72,1.61,1.68v.21h-2.63ZM179.01,130.2h1.95c-.03-.56-.38-.96-.96-.96-.42,0-.88.29-.99.96Z"/>
  <path class="st2" d="M182.63,132.17v-3.3h.55v.48c.26-.41.64-.57,1.13-.57.98,0,1.22.59,1.22,1.37v2.03h-.62v-2c0-.57-.2-.91-.73-.91-.56,0-.94.4-.94,1.12v1.79h-.61Z"/>
  <path class="st2" d="M188.23,132.17c-.14.04-.32.06-.45.06-.74,0-.83-.38-.83-1.03v-1.9h-.51v-.44h.51v-.87l.62-.27v1.14h.61v.44h-.61v1.93c0,.29,0,.49.32.49.07,0,.17,0,.28-.04l.07.49h0Z"/>
</svg>