<?xml version="1.0" encoding="UTF-8"?>
<svg id="Layer_1" xmlns="http://www.w3.org/2000/svg" xmlns:xlink="http://www.w3.org/1999/xlink" version="1.1" viewBox="0 0 240 85">
  <!-- Generator: Adobe Illustrator 29.0.0, SVG Export Plug-In . SVG Version: 2.1.0 Build 186)  -->
  <defs>
    <style>
      .st0 {
        fill: none;
      }

      .st1 {
        fill: #183b65;
      }

      .st2 {
        clip-path: url(#clippath);
      }
    </style>
    <clipPath id="clippath">
      <rect class="st0" x="20" y="20.5" width="200" height="48"/>
    </clipPath>
  </defs>
  <g class="st2">
    <g>
      <path class="st1" d="M115.96,36.16c-1.05,0-2.07.36-3.09.98-.08-.54-.54-.98-1.29-.97-1.1,0-2.5.78-3.83,1.83l.28.31c2.11-1.41,2.93-1.1,1.76.82l-1.91,3c-.56.82-.98,1.75-.98,2.54,0,.43.27,1.25.71,1.25.15,0,.31-.12.46-.35l3.17-4.98c1.22-1.87,2.53-3.66,4.11-3.66.54,0,.9.28.9.9,0,.51-.08.82-.39,1.4l.35.3,1.99-2.03c-.35-1.01-1.25-1.33-2.22-1.33h-.02,0Z"/>
      <path class="st1" d="M65.42,43.44l4.77-7.55-.43-.15c-.58.57-1.25,1.03-1.99,1.36-.43-.7-1.22-.93-2.04-.93-3.63,0-9.07,4.36-9.07,7.95,0,.97.54,1.79,1.6,1.79,1.13,0,2.66-.35,4.61-2.18-.62,1.05-.23,2.18,1.05,2.18,1.1,0,2.5-.78,3.83-1.83l-.28-.31c-1.92,1.28-2.78,1.13-2.07-.31h.02s0-.02,0-.02ZM60.1,44.53c-.59,0-.9-.51-.9-1.16,0-2.61,3.8-6.7,6.3-6.7.54,0,.9.31.9.93s-.66,1.6-1.13,2.38c-1.68,2.69-3.67,4.56-5.16,4.56h-.01Z"/>
      <path class="st1" d="M77.94,43.44l5.9-9.34c9.11-1.21,21.61-3.74,21.61-9.78,0-3-4.11-3.82-6.22-3.82-5.44,0-12.12,4.6-17.12,12.58l-.28.43c-.36,0-.71.03-1.05.03-4.26,0-8.88-1.16-8.88-4.79,0-2.8,2.96-3.7,5.89-3.7,1.79,0,3.55.35,4.57.82l.28-.35c-1.05-.54-2.97-.93-4.97-.93-5.05,0-7.47,2.26-7.47,4.59,0,2.57,2.97,5.26,8.72,5.26.74,0,1.53,0,2.35-.08l-1.4,2.3c-.43-.35-1.05-.51-1.64-.51-3.63,0-9.06,4.36-9.06,7.95,0,.97.54,1.79,1.6,1.79,1.13,0,2.66-.35,4.61-2.18-.62,1.05-.23,2.18,1.06,2.18,1.1,0,2.5-.78,3.83-1.83l-.28-.31c-1.92,1.28-2.78,1.13-2.07-.31h.02ZM84.64,32.82c2.93-4.64,8.91-11.84,14.5-11.84,1.76,0,3.95.77,3.95,3.16,0,6.42-12.99,8.53-18.81,9.19l.35-.51h.01ZM72.62,44.53c-.59,0-.9-.51-.9-1.16,0-2.61,3.8-6.7,6.3-6.7.54,0,.9.31.9.93s-.66,1.6-1.13,2.38c-1.68,2.69-3.67,4.56-5.16,4.56h-.01Z"/>
      <path class="st1" d="M52.65,40.44c-1.02,0-1.72.43-2.07.9l.35.28c.3-.27.69-.42,1.1-.43,1.17,0,1.53.82,1.53,1.56,0,1.48-1.09,2.57-2.62,2.57-4.85-.03-1.91-7.87-6.72-9.11,3.29-.7,5.74-2.3,5.74-4.83,0-2.15-1.64-3.51-3.67-4.29.72-.36,1.5-.55,2.3-.59v-.46h-.31c-1.16,0-2.29.21-3.37.62-1.62-.4-3.29-.62-4.97-.62-4.69,0-11.45,2.57-11.45,7.52,0,1.79,1.17,3.74,3.87,3.74,1.17,0,2.73-.54,3.83-1.64l-.31-.35c-.79.75-1.84.98-2.66.98-1.79,0-2.78-1.75-2.78-2.96,0-4.83,5.31-6.74,9.5-6.74,1.45,0,2.78.2,3.87.59-7.23,4.13-7.59,18.19-18.1,18.19-2.04,0-3.75-.78-3.75-3.08,0-1.79,1.28-3.11,2.86-3.11.8-.02,1.56.38,1.99,1.05l.39-.2c-.54-1.18-1.76-1.68-3.01-1.68-2.7,0-4.18,1.8-4.18,3.9,0,2.77,2.81,3.66,5.43,3.66,4.29,0,8.52-2.23,11.26-5.37,3.55-4.21,5.24-10.13,8.48-12.73,1.13.78,1.84,1.91,1.84,3.47,0,3.08-2.47,4.49-4.92,4.75h-1.27v.46c7.04.16.82,9.39,10.13,9.39,3.04,0,4.57-1.64,4.57-3.08,0-1.28-1.1-2.34-2.86-2.34h-.02v-.02h0Z"/>
      <path class="st1" d="M93.29,40.09c.62-.98.86-1.68.86-2.38,0-1.25-.98-1.56-1.64-1.56-1.28,0-2.81.51-4.73,2.34l.08-.12c.66-1.05.28-2.23-1.01-2.23-1.1,0-2.5.78-3.83,1.83l.28.31c2.11-1.41,2.93-1.1,1.76.82l-1.88,3c-.56.82-.98,1.75-.98,2.54,0,.43.27,1.25.71,1.25.15,0,.31-.12.47-.35l2.22-3.54c1.41-2.3,3.44-4.56,5.59-4.56.43,0,.66.28.66.62,0,.59-.51,1.4-.66,1.68l-2.47,3.93c-.67,1.05-.28,2.23,1.02,2.23,1.09,0,2.5-.78,3.83-1.83l-.28-.31c-2.11,1.41-2.93,1.1-1.76-.82l1.76-2.84v-.03.02Z"/>
      <path class="st1" d="M103.57,35.97c-3.6,0-8.83,3.74-8.68,7.44.03,1.48.86,2.49,2.81,2.49,3.75,0,8.75-3.85,8.63-7.47-.04-1.48-.82-2.46-2.78-2.46h.02ZM97.94,45.43c-.62,0-.9-.43-.94-1.1-.08-2.53,3.71-7.91,6.3-7.91.59,0,.86.39.9,1.05.08,2.92-4.34,7.95-6.25,7.95h-.01Z"/>
      <path class="st1" d="M186.7,37.72c0-1.33-1.32-1.56-2.3-1.56-3.83,0-8.68,4.56-8.68,7.91,0,1.44,1.33,1.83,2.7,1.83,2.15,0,4.54-.93,7.19-2.65l-.27-.39c-1.91,1.01-4.11,1.68-5.39,1.68-1.13,0-1.69-.28-1.69-1.16,0-.45.09-.9.23-1.33,2.62-.31,8.21-1.16,8.21-4.32h0ZM183.77,36.9c.54,0,.79.28.79.9,0,2.42-4.06,3.51-5.74,3.58,1.02-2.13,2.93-4.47,4.96-4.47h0Z"/>
      <path class="st1" d="M207.26,36.13c-.31,0-.43.12-.43.23,0-.07.51,1.21.51,2.03,0,4.98-4.97,6.31-6.1,6.31-.46,0-.59-.18-.59-.47.02-.32.13-.63.31-.9l3.09-4.95c.66-1.05.28-2.23-1.02-2.23-1.1,0-2.5.78-3.83,1.83l.28.31c2.11-1.41,2.93-1.1,1.76.82l-2.35,3.77c-.47.78-.82,1.6-.82,2.38,0,.59.74.62,1.1.62,3.14,0,10.24-3.62,10.24-7.44,0-1.75-1.09-2.34-2.15-2.34v.02h0Z"/>
      <path class="st1" d="M196.59,36.16c-1.05,0-2.07.36-3.09.98-.08-.54-.54-.98-1.29-.98-1.1,0-2.5.78-3.83,1.83l.28.31c2.11-1.41,2.93-1.1,1.76.82l-1.92,3c-.56.82-.98,1.75-.98,2.54,0,.43.28,1.25.71,1.25.15,0,.31-.12.46-.35l3.17-4.98c1.21-1.87,2.53-3.66,4.11-3.66.54,0,.9.28.9.9,0,.51-.08.82-.39,1.4l.35.31,1.99-2.03c-.35-1.01-1.25-1.33-2.22-1.33h-.01Z"/>
      <path class="st1" d="M220,37.72c0-1.33-1.32-1.56-2.3-1.56-3.83,0-8.68,4.56-8.68,7.91,0,1.44,1.33,1.83,2.7,1.83,2.15,0,4.54-.93,7.19-2.65l-.27-.39c-1.92,1.01-4.11,1.68-5.39,1.68-1.13,0-1.69-.28-1.69-1.16,0-.45.09-.9.23-1.33,2.62-.31,8.21-1.16,8.21-4.32h0ZM217.07,36.9c.54,0,.79.28.79.9,0,2.42-4.06,3.51-5.74,3.58,1.02-2.13,2.93-4.47,4.97-4.47h-.02,0Z"/>
      <path class="st1" d="M173.14,36.16c-2.58,0-5.31,1.56-5.31,3.39,0,2.18,3.63,2.38,3.63,3.74,0,1.16-1.76,2.15-3.04,2.15-1.13,0-1.53-.78-1.53-1.48,0-.44.12-.87.31-1.25l-.35-.2-1.99,2.03c.59.93,1.92,1.36,3.4,1.36,2.78,0,5.56-1.67,5.56-3.28,0-2.21-3.64-2.72-3.64-3.9,0-1.25,1.6-2.1,2.62-2.1s1.45.59,1.45,1.21c-.02.51-.15.99-.39,1.44l.31.23,1.76-1.79c-.35-1.01-1.53-1.56-2.78-1.56h0Z"/>
      <path class="st1" d="M154.8,39.51l1.99-2.03c-.35-1.01-1.25-1.33-2.22-1.33-1.05,0-2.07.36-3.09.98-.08-.54-.54-.98-1.3-.97-1.1,0-2.5.78-3.83,1.83l.28.31c2.11-1.41,2.93-1.1,1.76.82l-1.92,3c-.56.82-.98,1.75-.98,2.54,0,.43.27,1.25.71,1.25.15,0,.31-.12.48-.35l3.17-4.98c1.21-1.87,2.54-3.66,4.11-3.66.54,0,.9.28.9.9,0,.51-.08.82-.39,1.4l.36.3h-.03Z"/>
      <path class="st1" d="M152.23,31.38c0-2.15-1.64-3.51-3.67-4.29.72-.36,1.52-.55,2.32-.59v-.47h-.31c-1.16,0-2.29.21-3.37.62-1.62-.4-3.29-.62-4.97-.62-4.69,0-11.45,2.57-11.45,7.52,0,1.79,1.17,3.74,3.86,3.74,1.17,0,2.73-.54,3.83-1.64l-.31-.35c-.79.75-1.84.98-2.66.98-1.79,0-2.78-1.75-2.78-2.96,0-4.83,5.31-6.74,9.5-6.74,1.45,0,2.78.2,3.87.59-7.23,4.13-7.59,18.19-18.1,18.19-2.04,0-3.75-.78-3.75-3.08,0-1.79,1.28-3.11,2.86-3.11.8-.02,1.56.38,1.99,1.05l.39-.2c-.54-1.18-1.76-1.68-3.01-1.68-2.7,0-4.18,1.8-4.18,3.9,0,2.77,2.81,3.66,5.43,3.66,4.31,0,8.52-2.23,11.26-5.37,3.55-4.21,5.24-10.13,8.48-12.73,1.13.78,1.84,1.91,1.84,3.47,0,3.23-2.7,4.64-5.31,4.79l.05.47c4.46-.31,8.21-2.03,8.21-5.14h-.02Z"/>
      <path class="st1" d="M59.72,66.63h-3.81l-.79,1.79h-1.05l3.24-7.14h1.01l3.25,7.14h-1.08l-.79-1.79h.02ZM59.36,65.81l-1.54-3.49-1.54,3.49h3.09,0Z"/>
      <path class="st1" d="M69.27,61.95c.53.44.8,1.05.8,1.82s-.27,1.38-.8,1.82c-.53.44-1.26.66-2.19.66h-1.77v2.16h-1.02v-7.14h2.79c.93,0,1.66.22,2.19.67h0ZM68.54,64.96c.34-.28.51-.67.51-1.19s-.17-.91-.51-1.19c-.34-.28-.83-.42-1.48-.42h-1.74v3.19h1.74c.65,0,1.15-.14,1.48-.42h0v.03Z"/>
      <path class="st1" d="M77.43,66.63h-3.81l-.79,1.79h-1.05l3.24-7.14h1.01l3.25,7.14h-1.08l-.79-1.79h.02ZM77.07,65.81l-1.54-3.49-1.54,3.49h3.09s-.01,0,0,0h0Z"/>
      <path class="st1" d="M86.78,68.42l-1.54-2.19c-.19.01-.34.02-.45.02h-1.77v2.17h-1.02v-7.14h2.79c.93,0,1.66.22,2.19.67s.8,1.05.8,1.82c0,.55-.14,1.01-.41,1.41-.27.39-.66.67-1.17.84l1.7,2.4s-1.12,0-1.12,0ZM86.24,64.96c.34-.28.51-.68.51-1.19s-.17-.91-.51-1.19c-.34-.28-.83-.42-1.48-.42h-1.74v3.21h1.74c.65,0,1.15-.14,1.48-.42h0Z"/>
      <path class="st1" d="M92.4,62.17h-2.45v-.89h5.93v.89h-2.45v6.25h-1.01v-6.25h-.02Z"/>
      <path class="st1" d="M105.27,68.42v-5.2l-2.59,4.34h-.48l-2.59-4.3v5.17h-.98v-7.14h.83l2.99,5.02,2.95-5.02h.83v7.14h-.97.01Z"/>
      <path class="st1" d="M115.24,67.53v.89h-5.2v-7.14h5.06v.89h-4.03v2.19h3.59v.86h-3.59v2.31h4.18-.01Z"/>
      <path class="st1" d="M124.7,61.28v7.14h-.83l-4.29-5.32v5.32h-1.02v-7.14h.83l4.29,5.32v-5.32h1.02Z"/>
      <path class="st1" d="M129.92,62.17h-2.45v-.89h5.93v.89h-2.45v6.25h-1.01v-6.25h-.02Z"/>
      <path class="st1" d="M146.7,61.28v7.14h-1.02v-3.18h-4.11v3.18h-1.02v-7.14h1.02v3.07h4.11v-3.07h1.02Z"/>
      <path class="st1" d="M151.77,68.03c-.58-.31-1.03-.75-1.37-1.31-.34-.57-.5-1.18-.5-1.87s.16-1.3.5-1.87c.34-.55.79-.99,1.37-1.31s1.23-.47,1.96-.47,1.37.16,1.94.47c.58.31,1.03.75,1.37,1.3.32.55.49,1.18.49,1.87s-.16,1.31-.49,1.87c-.32.55-.78.99-1.37,1.3-.58.31-1.23.47-1.94.47s-1.38-.16-1.96-.47c0,0,0,.02,0,.02ZM155.14,67.23c.42-.24.75-.57.99-.98.24-.42.36-.89.36-1.4s-.12-.98-.36-1.41-.58-.75-.99-.98c-.42-.24-.89-.36-1.41-.36s-1,.12-1.42.36-.76.57-1.01.98-.36.89-.36,1.41.13.98.36,1.4c.24.42.58.75,1.01.98.43.24.9.36,1.42.36s1-.12,1.41-.36Z"/>
      <path class="st1" d="M167.37,68.42v-5.2l-2.59,4.34h-.47l-2.59-4.3v5.17h-.98v-7.14h.83l2.99,5.02,2.95-5.02h.83v7.14h-.98,0Z"/>
      <path class="st1" d="M177.35,67.53v.89h-5.2v-7.14h5.06v.89h-4.03v2.19h3.59v.86h-3.59v2.31h4.18,0Z"/>
      <path class="st1" d="M181.17,68.25c-.5-.16-.89-.38-1.18-.65l.38-.8c.28.24.62.44,1.05.6.43.15.87.23,1.32.23.59,0,1.04-.1,1.33-.3.29-.2.44-.46.44-.8,0-.24-.08-.44-.24-.6-.16-.15-.36-.27-.59-.35s-.57-.17-.99-.28c-.54-.13-.97-.25-1.31-.39-.33-.13-.61-.32-.85-.6-.23-.27-.35-.63-.35-1.08,0-.38.1-.73.3-1.03.2-.3.51-.55.91-.74s.92-.28,1.53-.28c.43,0,.83.06,1.25.16.4.1.76.27,1.05.47l-.34.82c-.3-.18-.62-.33-.96-.44s-.67-.15-1.01-.15c-.58,0-1.02.1-1.31.31s-.44.48-.44.82c0,.24.08.44.24.6.16.16.37.28.61.36s.57.17.98.27c.54.13.97.25,1.3.39.32.13.61.32.85.59.23.27.35.62.35,1.07,0,.37-.1.72-.31,1.03-.21.31-.51.55-.93.74-.42.18-.93.27-1.54.27-.54,0-1.05-.08-1.56-.25h.02,0Z"/>
      <path class="st1" d="M203.09,52.95H36.32v.58h166.77v-.58Z"/>
      <path class="st1" d="M165.44,37.72c0-1.33-1.32-1.56-2.3-1.56-3.83,0-8.68,4.56-8.68,7.91,0,1.44,1.33,1.83,2.7,1.83,2.15,0,4.54-.93,7.19-2.65l-.27-.39c-1.91,1.01-4.11,1.68-5.39,1.68-1.13,0-1.69-.28-1.69-1.16,0-.45.09-.9.23-1.33,2.62-.31,8.21-1.16,8.21-4.32h0ZM162.5,36.9c.54,0,.79.28.79.9,0,2.42-4.07,3.51-5.75,3.58,1.02-2.13,2.93-4.47,4.96-4.47h0Z"/>
    </g>
  </g>
</svg>
